<?xml version="1.0" encoding="UTF-8" standalone="no"?>
<!-- Created with Inkscape (http://www.inkscape.org/) -->

<svg
  enable-background="new"
  height="2000"
  id="svg8"
  inkscape:export-filename="/home/guibos/Documentos/shirokuro/logo.png"
  inkscape:export-xdpi="96"
  inkscape:export-ydpi="96"
  inkscape:version="0.92.5 (2060ec1f9f, 2020-04-08)"
  sodipodi:docname="logo.svg"
  version="1.1"
  viewBox="0 0 529.16664 529.16668"
  width="2000"
  xmlns="http://www.w3.org/2000/svg"
  xmlns:cc="http://creativecommons.org/ns#"
  xmlns:dc="http://purl.org/dc/elements/1.1/"
  xmlns:inkscape="http://www.inkscape.org/namespaces/inkscape"
  xmlns:rdf="http://www.w3.org/1999/02/22-rdf-syntax-ns#"
  xmlns:sodipodi="http://sodipodi.sourceforge.net/DTD/sodipodi-0.dtd">
  <defs
    id="defs2"/>
  <sodipodi:namedview
    bordercolor="#666666"
    borderopacity="1.0"
    id="base"
    inkscape:current-layer="g5490"
    inkscape:cx="-18.331259"
    inkscape:cy="1206.644"
    inkscape:document-units="mm"
    inkscape:pageopacity="0.0"
    inkscape:pageshadow="2"
    inkscape:snap-grids="true"
    inkscape:snap-page="false"
    inkscape:window-height="1411"
    inkscape:window-maximized="1"
    inkscape:window-width="2498"
    inkscape:window-x="62"
    inkscape:window-y="0"
    inkscape:zoom="0.39095831"
    pagecolor="#ffffff"
    showgrid="true"
    units="px">
    <inkscape:grid
      id="grid3713"
      type="xygrid"/>
  </sodipodi:namedview>
  <metadata
    id="metadata5">
    <rdf:RDF>
      <cc:Work
        rdf:about="">
        <dc:format>image/svg+xml</dc:format>
        <dc:type
          rdf:resource="http://purl.org/dc/dcmitype/StillImage"/>
        <dc:title/>
      </cc:Work>
    </rdf:RDF>
  </metadata>
  <g
    id="g5490"
    inkscape:groupmode="layer"
    inkscape:label="asd"
    transform="translate(0,232.16668)">
    <path
      d="M -1.3333334e-5,297 529.16667,-232.16668 H -1.3333334e-5 Z"
      id="path6968-3"
      inkscape:connector-curvature="0"
      inkscape:label="kuro"
      style="fill:#000000;fill-opacity:1;stroke:none;stroke-width:2.64583325;stroke-linecap:butt;stroke-linejoin:miter;stroke-miterlimit:4;stroke-dasharray:none;stroke-opacity:1"/>
    <path
      d="M 529.16667,-232.16668 9.1666664e-6,297 H 529.16667 Z"
      id="path6968"
      inkscape:connector-curvature="0"
      inkscape:label="shiro"
      style="fill:#ffffff;fill-opacity:1;stroke:none;stroke-width:1.85208333;stroke-linecap:square;stroke-linejoin:miter;stroke-miterlimit:0;stroke-dasharray:none;stroke-opacity:1;paint-order:normal"/>
    <g
      aria-label="S"
      id="flowRoot7010"
      style="font-style:normal;font-variant:normal;font-weight:normal;font-stretch:normal;font-size:50.10942459px;line-height:1.25;font-family:monospace;-inkscape-font-specification:monospace;letter-spacing:0px;word-spacing:0px;fill:#ffffff;fill-opacity:1;stroke:none"
      transform="matrix(5.4999304,0,0,5.0690776,2703.5895,-2215.6454)">
      <path
        d="m -464.81058,448.04764 q -1.56592,0 -3.05354,-0.15659 -1.48762,-0.15659 -2.97525,-0.52197 -3.02744,-0.70467 -5.63731,-2.0618 v -7.96009 q 3.10574,2.19229 5.97659,3.26233 2.92305,1.07005 5.63732,1.07005 2.87085,0 4.46287,-1.30494 1.56592,-1.30493 1.56592,-3.60161 0,-1.80081 -1.04395,-3.07964 -0.54807,-0.67857 -1.33103,-1.17444 -0.75686,-0.52198 -1.69641,-0.88736 l -3.78431,-1.43542 q -3.00135,-1.14835 -4.93265,-2.29669 -1.9313,-1.17444 -2.94915,-2.37498 -2.06179,-2.37497 -2.06179,-6.55076 0,-5.32413 3.39282,-8.32547 3.41893,-3.02745 9.29113,-3.02745 2.89695,0 5.40242,0.57417 2.53157,0.54807 5.32413,1.85301 v 7.51641 q -5.01094,-3.57552 -10.12628,-3.57552 -2.81866,0 -4.25408,1.12225 -1.48763,1.12224 -1.48763,3.18403 0,1.61812 1.09615,2.68817 0.52197,0.52197 1.53982,1.07004 1.04394,0.54807 2.97524,1.27884 l 3.31454,1.25273 q 4.72385,1.74861 6.91614,4.54117 2.21839,2.84475 2.21839,7.33372 0,5.76781 -3.49722,8.66476 -3.49722,2.92305 -10.28288,2.92305 z"
        id="path901"
        inkscape:connector-curvature="0"
        style="font-style:normal;font-variant:normal;font-weight:bold;font-stretch:normal;font-size:53.45006561px;font-family:monospace;-inkscape-font-specification:'monospace Bold';fill:#ffffff;fill-opacity:1"/>
    </g>
    <g
      aria-label="K"
      id="flowRoot7010-4"
      style="font-style:normal;font-variant:normal;font-weight:normal;font-stretch:normal;font-size:50.10942459px;line-height:1.25;font-family:Lato;-inkscape-font-specification:Lato;letter-spacing:0px;word-spacing:0px;fill:#000012;fill-opacity:1;stroke:none"
      transform="matrix(5.4999305,0,0,5.0690775,2919.1152,-2052.4391)">
      <path
        d="m -477.1373,410.07179 h 7.21791 v 14.43582 l 11.30398,-14.43582 h 8.17215 l -11.52419,14.38689 11.94014,22.14308 h -8.02534 l -8.6615,-16.44215 -3.20524,4.0616 v 12.38055 h -7.21791 z"
        id="path904"
        inkscape:connector-curvature="0"
        style="font-style:normal;font-variant:normal;font-weight:bold;font-stretch:normal;font-size:50.10943604px;font-family:monospace;-inkscape-font-specification:'monospace Bold';fill:#000012;fill-opacity:1"/>
    </g>
  </g>
</svg>
